<svg xmlns="http://www.w3.org/2000/svg" viewBox="0 0 120 120" role="img" aria-label="JOTA Principal">
  <defs>
    <linearGradient id="coral" x1="16" x2="104" y1="14" y2="106" gradientUnits="userSpaceOnUse">
      <stop stop-color="#ff6552"/>
      <stop offset="1" stop-color="#dc4434"/>
    </linearGradient>
  </defs>
  <rect width="120" height="120" rx="5" fill="url(#coral)"/>
  <rect x="20" y="20" width="80" height="80" rx="2" fill="none" stroke="#ffd0c8" stroke-width="2"/>
  <path d="M76 20v48c0 23-12 35-36 36" fill="none" stroke="#fff4f1" stroke-width="6" stroke-linecap="round"/>
  <path d="M84 20v50c0 30-15 45-44 46" fill="none" stroke="#ffd0c8" stroke-width="2" stroke-linecap="round"/>
  <circle cx="43" cy="21" r="6" fill="#fff4f1"/>
  <path d="M43 9v6M43 27v6M31 21h6M49 21h6M34 12l4 4M48 26l4 4M52 12l-4 4M38 26l-4 4" stroke="#fff4f1" stroke-width="2" stroke-linecap="round"/>
</svg>
